<?xml version="1.0" standalone="no"?>
<!DOCTYPE svg PUBLIC "-//W3C//DTD SVG 20010904//EN"
 "http://www.w3.org/TR/2001/REC-SVG-20010904/DTD/svg10.dtd">
<svg version="1.0" xmlns="http://www.w3.org/2000/svg"
 width="200.000000pt" height="200.000000pt" viewBox="0 0 200.000000 200.000000"
 preserveAspectRatio="xMidYMid meet">
<metadata>
Created by potrace 1.15, written by Peter Selinger 2001-2017
</metadata>
<g transform="translate(0.000000,200.000000) scale(0.100000,-0.100000)"
fill="#000000" stroke="none">
<path d="M0 1671 l0 -329 36 13 c20 7 40 18 44 25 10 17 33 2 26 -17 -3 -8 3
-26 14 -40 11 -14 20 -41 20 -59 0 -56 -68 -92 -121 -64 -19 11 -19 3 -19
-595 l1 -605 324 0 323 0 -32 78 c-18 42 -45 124 -60 182 -15 58 -34 124 -42
148 -22 66 -18 88 38 199 45 89 59 108 94 129 33 19 47 22 67 15 28 -11 37 -6
37 21 0 11 5 16 11 13 5 -4 9 -17 7 -30 -2 -15 7 -35 26 -54 31 -32 25 -41 -9
-17 -47 33 -145 -6 -131 -52 10 -29 30 -33 77 -17 91 32 109 4 27 -40 -29 -16
-69 -41 -88 -57 -19 -15 -42 -28 -50 -28 -25 0 -40 -21 -40 -56 0 -31 70 -175
131 -272 16 -25 36 -68 45 -96 24 -74 35 -79 17 -8 -15 60 -15 63 12 139 15
43 36 99 47 126 l20 47 83 0 c86 0 183 -14 198 -29 16 -16 -68 -193 -147 -313
l-18 -28 108 1 c76 0 102 3 87 9 -22 9 -33 40 -14 40 5 0 14 14 20 30 18 52
86 66 126 26 13 -14 32 -26 41 -28 25 -5 29 -28 6 -35 -11 -2 -22 -13 -25 -24
-5 -18 5 -19 301 -19 l307 0 0 23 c1 12 5 33 9 46 7 21 6 23 -12 18 -21 -5
-48 14 -36 25 3 4 -8 9 -25 13 -18 4 -31 13 -31 21 0 9 4 13 9 9 5 -3 12 4 16
15 3 11 10 20 14 20 13 0 31 -24 31 -42 0 -10 7 -18 15 -18 8 0 15 -6 15 -14
0 -22 16 -27 44 -15 l26 12 0 268 c0 182 -3 270 -11 275 -6 3 -9 15 -6 25 3
10 -1 23 -8 29 -23 19 -28 66 -10 99 8 17 20 31 25 31 6 0 10 68 10 174 0 142
-3 176 -15 186 -19 16 -19 69 0 97 18 26 17 151 -2 171 -6 6 -26 12 -43 12
-37 0 -80 39 -80 72 0 13 6 35 14 50 8 15 12 36 9 48 -4 14 -1 20 11 20 9 0
16 -4 16 -9 0 -5 20 -11 45 -13 l45 -3 0 119 c0 115 -1 118 -21 113 -32 -9
-49 3 -49 33 0 34 22 54 50 45 17 -5 20 -2 20 19 l0 26 -170 0 -169 0 20 -35
c28 -48 13 -96 -37 -120 -88 -41 -157 60 -91 133 l20 22 -20 0 c-12 0 -23 -7
-27 -15 -3 -8 -12 -15 -21 -15 -8 0 -15 7 -15 15 0 21 -117 21 -144 0 -11 -8
-34 -15 -51 -15 -17 0 -40 7 -51 15 -28 21 -349 21 -390 0 -36 -19 -63 -19
-88 0 -22 17 -106 21 -106 5 0 -5 -9 -10 -20 -10 -11 0 -20 5 -20 10 0 6 -6
10 -14 10 -9 0 -12 -7 -9 -19 3 -10 0 -22 -5 -25 -6 -3 -8 -15 -5 -25 13 -52
-82 -124 -121 -92 -8 7 -24 10 -35 6 -22 -7 -38 12 -23 27 6 6 8 24 5 40 -4
21 0 38 16 59 l22 29 -150 0 c-148 0 -150 0 -153 -22 -4 -28 -23 -25 -22 2 1
18 -6 20 -63 20 l-63 0 0 -329z m1090 282 c3 -12 18 -31 33 -44 16 -12 32 -32
37 -45 8 -19 15 -22 54 -21 38 2 48 -2 63 -23 26 -36 23 -43 -20 -53 -33 -8
-42 -6 -63 14 -13 12 -25 21 -27 18 -2 -2 -11 -17 -21 -32 -10 -16 -30 -33
-45 -38 -20 -7 -27 -16 -26 -37 0 -20 -5 -27 -20 -27 -16 0 -20 6 -19 29 0 30
-19 57 -49 69 -9 3 -17 13 -17 22 0 19 -19 19 -40 0 -13 -12 -28 -14 -59 -9
-22 4 -41 10 -41 15 0 4 11 20 25 35 22 23 30 26 65 20 36 -6 41 -4 50 18 5
14 23 35 39 47 17 12 28 26 25 31 -8 13 17 39 35 36 8 -2 18 -13 21 -25z
m-400 -229 c0 -26 -39 -72 -63 -76 -20 -3 -22 -9 -22 -62 0 -38 4 -60 13 -63
6 -3 12 -16 12 -29 0 -12 7 -27 17 -32 10 -6 14 -16 10 -27 -9 -23 -32 -13
-31 14 0 14 -5 21 -18 21 -10 0 -21 7 -25 16 -4 11 -13 14 -29 10 -14 -4 -24
-2 -24 4 0 5 6 10 13 10 7 1 5 6 -6 14 -15 12 -15 15 -2 26 30 25 11 70 -30
70 -49 0 -59 -46 -17 -82 28 -23 32 -58 7 -58 -8 0 -20 10 -26 22 -12 22 -12
22 -20 3 -4 -11 -8 -32 -8 -47 -1 -20 -9 -32 -31 -43 -41 -21 -50 -19 -50 14
0 38 9 61 25 61 6 0 19 8 29 19 13 14 14 24 6 45 -15 40 -13 52 13 78 28 29
75 46 107 38 33 -9 50 -2 50 20 0 23 18 37 55 43 17 2 33 5 38 6 4 0 7 -6 7
-15z m838 -7 c6 -5 12 -17 12 -27 0 -23 22 -31 58 -21 19 6 40 4 61 -5 27 -12
33 -11 37 1 9 22 34 18 34 -5 0 -11 -6 -20 -14 -20 -12 0 -12 -6 -3 -36 8 -26
8 -44 -1 -67 -12 -30 -10 -34 18 -57 24 -20 30 -33 30 -63 0 -21 -3 -37 -7
-35 -5 3 -23 10 -40 17 -28 11 -33 18 -33 48 0 30 -3 34 -20 29 -11 -3 -29 -8
-39 -11 -11 -3 -29 0 -41 7 -18 11 -23 11 -31 -4 -16 -28 -49 -23 -49 7 0 14
6 25 13 25 8 0 12 22 12 75 l1 75 -28 0 c-18 0 -31 6 -35 18 -3 9 -13 25 -20
34 -23 26 -7 40 35 32 20 -4 43 -11 50 -17z m-1271 -94 c2 -34 -1 -71 -7 -82
-10 -20 -76 -45 -92 -35 -4 3 -8 -2 -8 -10 0 -20 -19 -31 -32 -18 -8 8 -8 15
1 25 9 11 8 17 -3 26 -21 18 -29 61 -16 91 15 35 62 62 95 54 16 -4 25 -2 25
6 0 6 7 10 16 8 12 -2 17 -18 21 -65z m1047 -193 c-1 -11 9 -14 40 -12 77 7
123 -58 92 -131 -8 -20 -12 -45 -9 -56 4 -15 1 -21 -11 -21 -9 0 -16 5 -16 10
0 6 -15 8 -38 4 -29 -4 -43 -1 -64 16 -33 25 -52 84 -37 113 7 12 7 22 2 26
-15 10 -24 41 -11 38 7 -1 13 4 14 11 1 6 2 15 3 18 3 12 36 -3 35 -16z m-501
-15 c15 -8 34 -12 42 -8 26 10 16 -17 -11 -29 -21 -10 -92 -102 -106 -138 -2
-4 -13 -11 -25 -14 -20 -6 -23 -4 -23 18 0 14 -5 36 -11 50 -19 40 -3 94 34
116 38 24 62 25 100 5z m330 -23 c76 -73 47 -232 -63 -343 -60 -60 -78 -69
-142 -69 -65 0 -132 38 -148 84 -11 32 -13 96 -4 120 16 42 52 -2 40 -49 -8
-31 34 -62 105 -75 78 -15 79 -15 72 23 -8 43 -22 70 -23 42 -1 -42 -15 -46
-46 -14 l-29 32 28 -7 c32 -8 37 11 10 35 -10 9 -23 24 -28 34 -7 11 -23 18
-45 19 -32 1 -35 3 -33 29 2 32 17 53 47 69 12 6 18 7 14 3 -10 -11 31 -67 43
-59 6 3 16 0 24 -6 18 -15 33 -5 46 27 11 30 -9 59 -50 75 -22 8 -23 10 -9 24
25 25 90 44 128 38 19 -3 47 -17 63 -32z m-800 -175 c7 -27 5 -42 -4 -53 -21
-26 -21 -52 1 -59 23 -7 53 -58 42 -70 -4 -4 3 -2 14 5 26 16 57 6 52 -17 -2
-12 -12 -18 -28 -18 -14 0 -33 -10 -44 -23 -10 -13 -24 -21 -32 -18 -9 3 -11
0 -7 -12 5 -14 2 -13 -14 3 -18 18 -18 21 -4 32 12 9 18 9 23 0 5 -8 8 -4 8 9
0 12 -9 33 -21 48 -18 23 -27 26 -65 22 -24 -2 -44 -2 -44 0 0 13 37 44 52 44
21 0 24 27 6 66 -11 24 -10 28 10 42 12 8 22 21 22 29 0 29 25 6 33 -30z
m1506 -8 c20 -26 22 -34 12 -55 -10 -23 -8 -29 24 -58 19 -18 35 -40 35 -49 0
-10 11 -17 28 -19 37 -4 39 -43 2 -43 -15 0 -30 -8 -37 -21 -7 -12 -26 -27
-44 -34 -29 -13 -31 -16 -25 -53 6 -34 3 -42 -20 -64 -30 -27 -39 -23 -49 24
-5 25 -2 36 14 50 24 20 27 33 7 33 -18 0 -66 56 -66 76 0 14 -2 14 -15 0 -19
-19 -45 -10 -45 14 0 22 28 34 46 19 11 -9 14 -7 14 8 0 21 30 53 68 73 22 11
22 13 8 29 -18 20 -21 47 -5 56 6 4 8 13 5 20 -5 13 2 26 13 24 3 0 17 -14 30
-30z m-382 -90 c-4 -16 0 -19 27 -19 84 0 91 -132 9 -167 -21 -8 -42 -22 -49
-31 -8 -11 -13 -12 -18 -4 -4 7 -5 16 -2 21 3 4 -5 18 -19 31 -13 12 -28 36
-34 52 -9 26 -7 32 30 69 22 22 37 44 34 49 -9 14 4 32 17 24 5 -3 8 -15 5
-25z m-1309 -295 c27 -31 28 -63 2 -97 -11 -14 -20 -32 -20 -41 0 -21 -8 -20
-55 4 -48 24 -65 45 -65 81 0 42 10 60 44 75 38 16 64 10 94 -22z m1251 -19
c5 -97 2 -110 -30 -138 -25 -23 -39 -28 -65 -25 -28 3 -33 1 -29 -13 7 -22
-24 -34 -32 -13 -3 9 0 19 6 24 10 6 10 12 0 29 -10 15 -11 26 -3 39 6 9 17
40 23 69 l13 52 58 -2 c50 -2 58 -5 59 -22z m315 -195 c-3 -49 -10 -60 -35
-60 -25 0 -34 -22 -19 -50 8 -16 8 -30 -1 -58 -9 -27 -9 -37 0 -40 19 -6 12
-32 -9 -32 -11 0 -20 3 -20 8 0 4 -31 7 -69 8 -62 0 -70 -2 -79 -22 -7 -15
-22 -23 -47 -26 -42 -5 -53 8 -34 44 15 29 28 38 57 38 19 0 22 5 22 39 0 28
8 49 26 71 23 27 33 31 68 29 47 -3 68 5 60 25 -6 16 21 46 42 46 8 0 14 5 14
10 0 6 6 10 14 10 9 0 12 -12 10 -40z m-1529 -30 c3 -5 20 -10 36 -10 18 0 39
-9 54 -25 26 -25 34 -78 14 -91 -6 -3 -8 -17 -5 -30 5 -17 2 -24 -9 -24 -8 0
-15 4 -15 8 0 4 -16 8 -36 8 -28 0 -43 7 -60 28 -25 28 -32 70 -13 81 5 4 9
17 8 28 0 12 -1 25 0 30 1 10 19 9 26 -3z m1750 -65 c54 -53 11 -135 -70 -135
-14 0 -25 -5 -25 -11 0 -6 -8 -9 -17 -7 -18 3 -21 18 -25 102 -2 65 89 100
137 51z m-336 -299 c11 -8 15 -8 18 2 6 17 30 15 37 -3 3 -9 -1 -18 -9 -21 -8
-4 -15 -17 -15 -29 0 -70 -53 -107 -115 -81 -27 12 -35 22 -41 51 -14 75 66
127 125 81z"/>
</g>
</svg>
